Coordinates
version=1
nRows=24
nColumns=24
inDegrees=yes

Units are S.I. units (second, meters, Newtons, ...)
Angles are in degrees.

endheader
time	pelvis_tilt	pelvis_list	pelvis_rotation	pelvis_tx	pelvis_ty	pelvis_tz	hip_flexion_r	hip_adduction_r	hip_rotation_r	knee_angle_r	ankle_angle_r	subtalar_angle_r	mtp_angle_r	hip_flexion_l	hip_adduction_l	hip_rotation_l	knee_angle_l	ankle_angle_l	subtalar_angle_l	mtp_angle_l	lumbar_extension	lumbar_bending	lumbar_rotation
      1.32100000	      0.05446820	      2.09537398	     -0.22130122	      0.35105532	      1.01153228	      0.28858071	     18.80259659	     -0.89914692	      0.02413218	    -67.02706218	    -11.39734290	    -17.22985303	      6.92115796	      6.18822940	      6.43023974	     -0.07604977	     -5.45058358	     -2.64830203	     -8.70163133	      6.85180737	     -3.74078564	     -0.09896405	      1.82492395
      1.32516667	      0.08336445	      1.96543392	     -0.09787741	      0.35595624	      1.01217638	      0.28832770	     19.29230097	     -0.75553698	      0.00076415	    -66.73272938	    -10.56919661	    -17.48066263	      6.82332473	      5.73180034	      6.31142765	      0.08729834	     -5.24704565	     -2.54771732	     -8.66084614	      6.84097883	     -3.79762159	      0.06852017	      1.78235824
      1.32933333	      0.12843737	      1.86891974	      0.00671982	      0.36081878	      1.01275565	      0.28809165	     19.77172036	     -0.65575627	     -0.01783965	    -66.42279112	     -9.75642350	    -17.80063584	      6.71455030	      5.25674082	      6.22799429	      0.24689176	     -5.03341001	     -2.44462123	     -8.66175745	      6.82671499	     -3.88874080	      0.17621554	      1.69348383
      1.33350000	      0.18938109	      1.77679957	      0.09752468	      0.36568176	      1.01336025	      0.28787525	     20.21624144	     -0.54552571	     -0.00167405	    -66.05756313	     -8.91463903	    -18.03933491	      1.66930564	      4.72621128	      6.15394363	      0.49467759	     -4.73754556	     -2.45594609	     -8.89302016	      6.01328293	     -3.99934740	      0.29365944	      1.46893811
      1.33766667	      0.22545283	      1.66938866	      0.23071718	      0.37053616	      1.01387372	      0.28762510	     20.66449547	     -0.44443862	     -0.04823237	    -65.62344584	     -8.19227147	    -18.39871064	      1.64974047	      4.27731856	      6.05622912	      0.68010248	     -4.55634163	     -2.28879805	     -8.83457160	      6.01853582	     -4.08013740	      0.41585408	      1.39479873
      1.34183333	      0.28557234	      1.54939036	      0.35101645	      0.37539762	      1.01441503	      0.28739415	     21.06456595	     -0.32581421	     -0.08164005	    -65.11959917	     -7.49432593	    -18.73077631	      1.61302817	      3.78784282	      5.94371621	      0.87736306	     -4.34006504	     -2.20322723	     -8.87887701	      6.01482043	     -4.18362420	      0.55507248	      1.27095030
      1.34600000	      0.32529628	      1.42988229	      0.47485104	      0.38024550	      1.01487719	      0.28715548	     21.47454882	     -0.21315906	     -0.11840588	    -64.56986188	     -6.81568248	    -19.01953963	      1.56705972	      3.32609411	      5.83213234	      1.08991229	     -4.13114255	     -2.11823956	     -8.96329533	      6.00488764	     -4.26381141	      0.69734683	      1.14939844
      1.35016667	      0.34039320	      1.30523989	      0.60686698	      0.38508349	      1.01527906	      0.28692438	     21.89203651	     -0.09853679	     -0.16033613	    -63.96065678	     -6.16386548	    -19.23651027	      1.53769236	      2.91134867	      5.71159783	      1.28676326	     -3.95977372	     -2.03041829	     -9.01550552	      5.99642817	     -4.31299925	      0.83883433	      1.07573359
      1.35433333	      0.39500372	      1.20474781	      0.72133369	      0.38992891	      1.01567446	      0.28669468	     22.25803963	     -0.01283166	     -0.19126547	    -63.31903699	     -5.54968041	    -19.53626708	      1.46525998	      2.42002088	      5.61879441	      1.52926615	     -3.71890163	     -1.95894410	     -9.17688399	      5.97195514	     -4.41476169	      0.96618437	      0.90284713
      1.35850000	      0.44213113	      1.08088888	      0.84752640	      0.39476136	      1.01605178	      0.28647447	     22.60547252	      0.09771832	     -0.23054019	    -62.60239608	     -4.97861061	    -19.76151940	      1.37119999	      1.95570663	      5.49685724	      1.76957597	     -3.51165822	     -1.89314449	     -9.30998567	      5.93726243	     -4.51048191	      1.11282775	      0.77082728
      1.36266667	      0.46300000	      0.96639059	      0.97304881	      0.39959657	      1.01634566	      0.28625991	     22.96780449	      0.19448211	     -0.26790060	    -61.84396045	     -4.44138520	    -19.96895822	      1.24885332	      1.52670926	      5.38303009	      2.00329829	     -3.31691879	     -1.81830840	     -9.44650669	      5.88988234	     -4.56816036	      1.25053161	      0.64393637
      1.36683333	      0.47098745	      0.86123876	      1.10023119	      0.40443008	      1.01657695	      0.28605526	     23.32681827	      0.27765769	     -0.30428407	    -61.03959343	     -3.91107099	    -20.10970121	      1.19813308	      1.13850268	      5.27588985	      2.18598275	     -3.17676832	     -1.68560470	     -9.51012064	      5.87010073	     -4.59872300	      1.37670121	      0.58868721
      1.37100000	      0.51547039	      0.74714979	      1.22081025	      0.40927028	      1.01684644	      0.28586464	     23.62273000	      0.37293071	     -0.33688973	    -60.17282226	     -3.42895389	    -20.26986323	      1.14067133	      0.69714645	      5.15614207	      2.38604127	     -3.00682821	     -1.57287207	     -9.60332580	      5.84652341	     -4.68264778	      1.51385403	      0.49381343
      1.37516667	      0.58267649	      0.65268020	      1.32786483	      0.41411957	      1.01708826	      0.28568173	     23.88163331	      0.44621321	     -0.36128531	    -59.27033462	     -3.02047743	    -20.46166927	      1.01786597	      0.20178924	      5.05647547	      2.63262172	     -2.77720550	     -1.49095269	     -9.79376257	      5.79430622	     -4.80450266	      1.62754055	      0.31580618
      1.37933333	      0.56969283	      0.55150906	      1.44768619	      0.41895515	      1.01719145	      0.28551081	     24.20866882	      0.52420013	     -0.38779615	    -58.31790591	     -2.61089344	    -20.54922425	      0.96811007	     -0.15397668	      4.94656666	      2.81033904	     -2.65197359	     -1.35419422	     -9.85274327	      5.77372717	     -4.82051649	      1.74623365	      0.27612695
      1.38350000	      0.62911610	      0.46887682	      1.55313065	      0.42380911	      1.01735439	      0.28534751	     24.43576393	      0.58585925	     -0.40106948	    -57.31712453	     -2.26845379	    -20.69431343	      0.84114391	     -0.62774062	      4.85466444	      3.04887453	     -2.44998747	     -1.25109438	    -10.02655151	      5.71797368	     -4.92091851	      1.84894677	      0.11444936
      1.38766667	      0.62728155	      0.37122241	      1.66726346	      0.42865576	      1.01741209	      0.28520293	     24.70853066	      0.66099309	     -0.42198195	    -56.26403368	     -1.93527236	    -20.76168630	      0.78112758	     -0.99301188	      4.74251296	      3.22479719	     -2.32974894	     -1.10506754	    -10.08883862	      5.69291507	     -4.94871121	      1.96283684	      0.07125244
      1.39183333	      0.69172783	      0.30349988	      1.76093171	      0.43352617	      1.01751672	      0.28507173	     24.89144856	      0.70848236	     -0.42508339	    -55.17176012	     -1.68006219	    -20.87910401	      0.63540481	     -1.47319540	      4.66007625	      3.44702434	     -2.12672836	     -0.99548847	    -10.25236514	      5.62844098	     -5.06101969	      2.04295562	     -0.08016422
      1.39600000	      0.67949024	      0.23465975	      1.85897324	      0.43838887	      1.01748416	      0.28494856	     25.14087292	      0.75664631	     -0.41878373	    -54.04186844	     -1.40492828	    -20.92438835	      0.58099891	     -1.82716289	      4.57610659	      3.61663592	     -2.01280720	     -0.82956615	    -10.29371606	      5.60645081	     -5.06503555	      2.13815384	     -0.10568854
      1.40016667	      0.71200130	      0.15108542	      1.96165601	      0.44326629	      1.01749815	      0.28482810	     25.31052134	      0.81652399	     -0.43565508	    -52.84565027	     -1.19365980	    -20.99148189	      0.50564606	     -2.23740773	      4.47189477	      3.79170434	     -1.88055993	     -0.67578796	    -10.38023095	      5.57486429	     -5.13774235	      2.23445575	     -0.18078489
      1.40433333	      0.76548871	      0.10079235	      2.03648453	      0.44815992	      1.01749157	      0.28475033	     25.44603878	      0.85265138	     -0.42052763	    -51.62239671	     -1.05996398	    -21.09854514	      0.34092278	     -2.70529999	      4.40066937	      3.99673092	     -1.68230548	     -0.55977962	    -10.52344548	      5.50198573	     -5.24417682	      2.28584656	     -0.32473901
      1.40850000	      0.75895386	      0.03812067	      2.13024656	      0.45305170	      1.01737434	      0.28465648	     25.62466802	      0.88919031	     -0.42973549	    -50.36001797	     -0.87445131	    -21.12798352	      0.26199245	     -3.06193554	      4.31626263	      4.14790543	     -1.57815699	     -0.38093306	    -10.57766136	      5.46916182	     -5.26436376	      2.36070263	     -0.35491964
      1.41266667	      0.77395294	     -0.00597871	      2.20823478	      0.45795013	      1.01725555	      0.28459052	     25.75962821	      0.91462293	     -0.42002035	    -49.05484980	     -0.76186954	    -21.17917745	      0.16698951	     -3.45787734	      4.24908561	      4.30696702	     -1.44368858	     -0.21391873	    -10.64149360	      5.42896116	     -5.31445298	      2.41238610	     -0.41977043
      1.41683333	      0.79361929	     -0.05984617	      2.28340760	      0.46286707	      1.01712110	      0.28453035	     25.86349143	      0.95021482	     -0.41319249	    -47.70100538	     -0.67067470	    -21.23439814	      0.07227799	     -3.85821038	      4.16961444	      4.45320365	     -1.31173218	     -0.04398568	    -10.69677959	      5.38903127	     -5.36590972	      2.47463808	     -0.48420624
